<?xml version="1.0" encoding="UTF-8"?>
<svg version="1.1" xmlns="http://www.w3.org/2000/svg" width="500" height="500">
<path d="M0 0 C165 0 330 0 500 0 C500 165 500 330 500 500 C335 500 170 500 0 500 C0 335 0 170 0 0 Z " fill="#FEFEFE" transform="translate(0,0)"/>
<path d="M0 0 C48.72559367 0 48.72559367 0 58.53125 9.48046875 C64.48575218 16.2139029 64.59834743 23.20440289 64.37109375 31.75390625 C63.90557629 39.27010807 60.73499577 44.59563986 55.5 49.875 C44.47613707 58.51035929 31.2177295 57.35966611 18 57 C18 67.56 18 78.12 18 89 C12.06 89 6.12 89 0 89 C0 59.63 0 30.26 0 0 Z " fill="#050505" transform="translate(216,274)"/>
<path d="M0 0 C6.10354674 5.09490978 8.513179 11.90181763 9.25814819 19.70343018 C9.34388562 22.55996878 9.33827954 25.40038873 9.29296875 28.2578125 C9.28872391 29.28687714 9.28447906 30.31594177 9.28010559 31.37619019 C9.26346639 34.62607266 9.22584231 37.87530859 9.1875 41.125 C9.17243407 43.34374097 9.15874903 45.56249178 9.14648438 47.78125 C9.11361133 53.18774477 9.06193257 58.5937632 9 64 C4.05 64 -0.9 64 -6 64 C-6 61.69 -6 59.38 -6 57 C-6.79664063 57.48210937 -7.59328125 57.96421875 -8.4140625 58.4609375 C-9.47367187 59.09257812 -10.53328125 59.72421875 -11.625 60.375 C-12.66914063 61.00148438 -13.71328125 61.62796875 -14.7890625 62.2734375 C-20.35267997 65.26506636 -25.65202989 66.95279101 -32 66 C-37.90399101 64.07929313 -41.4955315 61.05055755 -45 56 C-47.65850001 50.43961619 -47.65074299 45.05438101 -47 39 C-45.4375 35.625 -45.4375 35.625 -43 33 C-42.57203125 32.50113281 -42.1440625 32.00226563 -41.703125 31.48828125 C-33.62253786 23.22025781 -20.02453764 21.22582852 -9 21 C-10.24194993 15.23826408 -10.24194993 15.23826408 -14 11 C-21.83153195 8.38948935 -27.17209459 10.60627772 -34.36328125 14.00390625 C-37 15 -37 15 -40 14 C-41.38671875 11.71484375 -41.38671875 11.71484375 -42.6875 8.9375 C-43.12449219 8.01839844 -43.56148438 7.09929687 -44.01171875 6.15234375 C-44.33785156 5.44207031 -44.66398437 4.73179687 -45 4 C-32.05582708 -5.1556345 -13.84171201 -9.8797727 0 0 Z " fill="#040404" transform="translate(334,299)"/>
<path d="M0 0 C5.61 0 11.22 0 17 0 C17.01981934 1.36729248 17.03963867 2.73458496 17.06005859 4.14331055 C17.13619956 9.22194664 17.22490423 14.3002994 17.31738281 19.37866211 C17.3556374 21.57554526 17.3904964 23.7724903 17.421875 25.96948242 C17.4676016 29.12961932 17.52558418 32.2893315 17.5859375 35.44921875 C17.59748871 36.42960617 17.60903992 37.40999359 17.62094116 38.42008972 C17.69579959 44.95915751 17.69579959 44.95915751 20 51 C22.36538659 52.18269329 24.04815151 52.30411792 26.6875 52.4375 C27.93080078 52.52837891 27.93080078 52.52837891 29.19921875 52.62109375 C33.50953486 51.66524959 36.3101433 49.48907163 39 46 C40.0013725 42.4461598 39.95605273 39.02589397 39.90234375 35.3515625 C39.91463516 34.33903412 39.92692657 33.32650574 39.93959045 32.28329468 C39.97127351 29.06312187 39.95505622 25.84524352 39.9375 22.625 C39.95061157 20.43617667 39.9668527 18.2473697 39.98632812 16.05859375 C40.02714304 10.70524074 40.02501605 5.3534338 40 0 C45.94 0 51.88 0 58 0 C58 22.11 58 44.22 58 67 C53.05 67 48.1 67 43 67 C42.34 64.36 41.68 61.72 41 59 C40.57589844 59.39832031 40.15179688 59.79664063 39.71484375 60.20703125 C31.9704163 67.20254704 26.07957609 68.7043157 15.61328125 68.4765625 C10.40921922 67.79018891 7.30069176 66.05691494 4 62 C0.74771729 56.75957274 -0.12889371 50.91301362 -0.11352539 44.8425293 C-0.11344986 43.84186935 -0.11337433 42.84120941 -0.11329651 41.81022644 C-0.10813522 40.7423439 -0.10297394 39.67446136 -0.09765625 38.57421875 C-0.0962413 37.47149124 -0.09482635 36.36876373 -0.09336853 35.23262024 C-0.08778004 31.71755233 -0.07522959 28.20254859 -0.0625 24.6875 C-0.05748352 22.30143321 -0.05292087 19.91536543 -0.04882812 17.52929688 C-0.03781437 11.68617327 -0.02055758 5.84309751 0 0 Z " fill="#030303" transform="translate(157,169)"/>
<path d="M0 0 C5.61 0 11.22 0 17 0 C19.86051281 7.02358056 22.51511705 14.08538481 25 21.25 C25.34812744 22.2498291 25.69625488 23.2496582 26.05493164 24.27978516 C28.37699763 31.01600562 30.47590341 37.76146664 32.30859375 44.6484375 C32.77762206 46.93726575 32.77762206 46.93726575 34 48 C34.32871094 46.50726563 34.32871094 46.50726563 34.6640625 44.984375 C38.10590363 29.69266056 42.39902943 14.64869226 48 0 C53.28 0 58.56 0 64 0 C62.46295589 7.81728163 60.04181804 15.201694 57.45703125 22.73046875 C57.0056956 24.05165461 56.5545011 25.3728887 56.10343933 26.69416809 C55.15958853 29.45462398 54.21175683 32.21367576 53.26147461 34.97192383 C52.0593266 38.46329008 50.87064493 41.95907304 49.68547535 45.45623302 C48.75788708 48.18621926 47.82117181 50.91301287 46.8820858 53.63906288 C46.22993144 55.53876145 45.58658177 57.44147559 44.94355774 59.34428406 C40.1998497 73.01096302 35.59015886 85.17068775 22.8125 92.9375 C17.28346408 94.47837886 9.32150634 95.66075317 4 93 C4.66 88.71 5.32 84.42 6 80 C7.8975 79.773125 9.795 79.54625 11.75 79.3125 C16.64732461 78.52410537 16.64732461 78.52410537 20.625 75.6875 C21.07875 74.800625 21.5325 73.91375 22 73 C22.6496875 71.824375 22.6496875 71.824375 23.3125 70.625 C25.31855406 62.96552087 20.93075415 55.20202319 18.125 48.2421875 C17.38472833 46.37638347 16.64446097 44.51057772 15.90444946 42.64467049 C14.87133265 40.04503494 13.83135216 37.44816929 12.79125977 34.85131836 C10.9687117 30.29916575 9.15275501 25.74439928 7.34326172 21.18704224 C6.38062375 18.76458076 5.4136514 16.34383621 4.44189453 13.92501831 C4.00474121 12.8268277 3.56758789 11.72863708 3.1171875 10.59716797 C2.73159668 9.63455048 2.34600586 8.67193298 1.94873047 7.68014526 C1 5 1 5 0 0 Z " fill="#040404" transform="translate(354,296)"/>
<path d="M0 0 C2.10144706 1.24654976 4.02964543 2.54815979 6 4 C4.5140084 8.59306496 2.14985318 11.43569245 -1 15 C-1.51046875 14.71125 -2.0209375 14.4225 -2.546875 14.125 C-8.93327377 10.8638602 -14.86713943 10.04301715 -22 11 C-24.15931527 12.8272323 -24.15931527 12.8272323 -24.625 15.3125 C-24.21610713 18.33569988 -24.21610713 18.33569988 -21 20.375 C-17.47719723 22.39793325 -13.82100589 23.91292627 -10.06640625 25.43603516 C2.29923579 30.52693595 2.29923579 30.52693595 5.98046875 35.5 C8.55592351 41.81529137 8.4802044 49.23948071 5.98828125 55.5703125 C2.4079965 60.96638636 -2.79704597 64.35198269 -9 66 C-22.32217906 67.60985501 -32.93676654 65.62669772 -44 58 C-42.44298069 53.32894208 -39.91552627 49.91294315 -37 46 C-36.27296875 46.433125 -35.5459375 46.86625 -34.796875 47.3125 C-27.62410305 51.28511216 -21.2635427 53.66822693 -13 52 C-10.66777672 50.21683144 -10.09543089 49.46522561 -9.5 46.5625 C-10.22087698 42.86800548 -11.93209754 42.12362072 -15 40 C-17.55271426 38.76281853 -20.17632626 37.732231 -22.8125 36.6875 C-30.04452123 33.66827479 -36.12047093 30.43927398 -40.5 23.6875 C-41.6856162 17.3148129 -42.11650095 11.17475143 -38.3984375 5.59765625 C-28.3260241 -5.90965403 -13.10630032 -6.99002684 0 0 Z " fill="#050505" transform="translate(272,171)"/>
<path d="M0 0 C4.95 0 9.9 0 15 0 C15 5.94 15 11.88 15 18 C20.61 18 26.22 18 32 18 C32 22.62 32 27.24 32 32 C26.39 32 20.78 32 15 32 C15.07412174 36.75145924 15.15705269 41.50107697 15.26245117 46.25170898 C15.2956311 47.86651963 15.32368458 49.48144431 15.34643555 51.09643555 C15.38011025 53.42285592 15.43242963 55.74823783 15.48828125 58.07421875 C15.49467117 58.79212082 15.5010611 59.51002289 15.50764465 60.24967957 C15.63543856 64.64197334 16.30282943 67.50008533 19 71 C21.52475462 72.26237731 23.31200466 72.09856404 26.125 72.0625 C27.03507812 72.05347656 27.94515625 72.04445313 28.8828125 72.03515625 C29.58148438 72.02355469 30.28015625 72.01195312 31 72 C32.42500059 75.99000166 33.40075776 79.80530429 34 84 C29.54221965 86.52410325 25.64260204 86.36735122 20.625 86.375 C19.78710938 86.39949219 18.94921875 86.42398438 18.0859375 86.44921875 C12.53496659 86.47540258 9.40315978 85.6804527 5 82 C-0.32329512 76.67670488 -2.02845022 71.14064014 -2.22705078 63.78710938 C-2.22674008 62.30595183 -2.2158011 60.82476586 -2.1953125 59.34375 C-2.1924826 58.55601196 -2.18965271 57.76827393 -2.18673706 56.95666504 C-2.17565169 54.47094736 -2.1505701 51.9856065 -2.125 49.5 C-2.1149551 47.80208858 -2.10583191 46.10417145 -2.09765625 44.40625 C-2.07575071 40.27069086 -2.04130326 36.13540904 -2 32 C-5.3 32 -8.6 32 -12 32 C-12 27.38 -12 22.76 -12 18 C-8.37 18 -4.74 18 -1 18 C-1.020625 16.515 -1.04125 15.03 -1.0625 13.5 C-1.06904494 8.9054504 -0.6728074 4.54144993 0 0 Z " fill="#030303" transform="translate(295,151)"/>
<path d="M0 0 C5.61 0 11.22 0 17 0 C17.09063795 8.9714142 17.16390926 17.94252059 17.20724869 26.91429043 C17.22805729 31.08097383 17.25625038 35.24732571 17.30175781 39.41381836 C17.34545778 43.44036648 17.36918762 47.46659723 17.37950897 51.49336433 C17.38685731 53.02386529 17.40120633 54.55435034 17.42292023 56.08471489 C17.57385843 67.17105393 16.62207209 76.14636732 8.72265625 84.4921875 C1.64240526 90.68941399 -6.65872038 90.81605451 -15.671875 90.44140625 C-23.60423687 89.82714441 -28.77227459 86.61990529 -34.125 80.875 C-37 77.47004608 -37 77.47004608 -37 74 C-34.59375 71.95703125 -34.59375 71.95703125 -31.5 69.8125 C-30.4790625 69.09707031 -29.458125 68.38164062 -28.40625 67.64453125 C-27.21515625 66.83048828 -27.21515625 66.83048828 -26 66 C-24.88625 67.1446875 -24.88625 67.1446875 -23.75 68.3125 C-18.72942656 73.27404275 -18.72942656 73.27404275 -12 74.4375 C-8.68704198 74.32544407 -7.32108484 74.20870515 -4.5 72.375 C-1.48069237 67.59442958 -0.74736396 63.02769437 -0.68115234 57.44384766 C-0.66128265 56.16297272 -0.64141296 54.88209778 -0.62094116 53.56240845 C-0.60906748 52.17962822 -0.59740447 50.79684616 -0.5859375 49.4140625 C-0.56721021 47.98773091 -0.54763565 46.56141021 -0.5272522 45.13510132 C-0.47608959 41.39681444 -0.43637945 37.6584917 -0.39910889 33.92004395 C-0.35896922 30.09895066 -0.30792252 26.27800449 -0.2578125 22.45703125 C-0.16124128 14.9714478 -0.07778611 7.48580654 0 0 Z " fill="#020202" transform="translate(120,147)"/>
<path d="M0 0 C19.71768438 -0.53291039 19.71768438 -0.53291039 26.5 5.0625 C29.67278051 9.16067482 29.56843782 12.97212746 29 18 C27.68591806 22.35524301 26.28304862 25.13077416 22.46875 27.71484375 C17.90031349 29.4074289 13.94375845 29.32791251 9.125 29.1875 C6.11375 29.125625 3.1025 29.06375 0 29 C0 19.43 0 9.86 0 0 Z " fill="#F9F9F9" transform="translate(234,288)"/>
<path d="M0 0 C0.13526139 2.24834496 0.23210804 4.49902514 0.3125 6.75 C0.37050781 8.00296875 0.42851562 9.2559375 0.48828125 10.546875 C0 14 0 14 -2.40625 16.375 C-3.2621875 16.91125 -4.118125 17.4475 -5 18 C-5.598125 18.4125 -6.19625 18.825 -6.8125 19.25 C-10.22859455 20.42123242 -13.43648583 20.56957809 -17 20 C-19.5 18.5 -19.5 18.5 -21 16 C-21.78496996 11.05468928 -21.78496996 11.05468928 -21 8 C-15.5374765 1.69708826 -8.14162936 -0.22225712 0 0 Z " fill="#F7F7F7" transform="translate(325,331)"/>
</svg>
